<?xml version="1.0" encoding="utf-8"?>
<!-- Generator: Adobe Illustrator 25.2.0, SVG Export Plug-In . SVG Version: 6.00 Build 0)  -->
<svg version="1.1" id="Layer_1" xmlns="http://www.w3.org/2000/svg" xmlns:xlink="http://www.w3.org/1999/xlink" x="0px" y="0px"
	 viewBox="0 0 512 512" style="enable-background:new 0 0 512 512;" xml:space="preserve">
<style type="text/css">
	.st0{fill:#F84E77;}
</style>
<g>
	<path class="st0" d="M476,424c15.5,0,28-12.5,28-28V52c0-15.5-12.5-28-28-28H36C20.5,24,8,36.5,8,52v344c0,15.5,12.5,28,28,28h212
		v17.4c-6.8,2.4-12.2,7.8-14.6,14.6H16c-4.4,0-8,3.6-8,8s3.6,8,8,8h217.4c4.4,12.5,18.1,19,30.6,14.6c6.8-2.4,12.2-7.8,14.6-14.6
		H496c4.4,0,8-3.6,8-8s-3.6-8-8-8H278.6c-2.4-6.8-7.8-12.2-14.6-14.6V424H476z M24,52c0-6.6,5.4-12,12-12h440c6.6,0,12,5.4,12,12v20
		H24V52z M36,408c-6.6,0-12-5.4-12-12V88h464v308c0,6.6-5.4,12-12,12H264v-8.2c75.7-4.2,136-67.1,136-143.8c0-79.4-64.6-144-144-144
		s-144,64.6-144,144c0,76.7,60.3,139.6,136,143.8v8.2H36z M311.3,232h70.5c3,15.9,3,32.1,0,48h-70.5c0.5-7.9,0.7-15.9,0.7-24
		S311.8,239.9,311.3,232z M309.9,216c-2.3-21.9-6.5-42.1-12.5-58.8c-3.9-11-8-19.4-12.3-25.8c43.4,10.3,78.4,42.3,92.4,84.6H309.9z
		 M293.9,216h-75.8c6.1-55.4,24.2-88,37.9-88S287.8,160.6,293.9,216z M214.5,157.2c-5.9,16.7-10.1,36.9-12.4,58.8h-67.7
		c14-42.3,49-74.4,92.4-84.6C222.6,137.8,218.4,146.2,214.5,157.2z M200.7,232c-0.5,7.9-0.7,15.9-0.7,24s0.2,16.1,0.7,24h-70.5
		c-3-15.9-3-32.1,0-48H200.7z M202.1,296c2.3,21.9,6.6,42.1,12.4,58.8c3.9,11,8.1,19.4,12.3,25.8c-43.4-10.3-78.4-42.3-92.4-84.6
		L202.1,296L202.1,296z M216,256c0-8.3,0.2-16.3,0.7-24h78.5c0.5,7.7,0.7,15.7,0.7,24c0,8.4-0.2,16.4-0.7,24h-78.5
		C216.3,272.4,216,264.4,216,256z M297.5,354.8c5.9-16.7,10.1-36.9,12.5-58.8h67.6c-14,42.3-49,74.4-92.4,84.6
		C289.4,374.2,293.6,365.8,297.5,354.8z M256,472c-4.4,0-8-3.6-8-8s3.6-8,8-8s8,3.6,8,8S260.4,472,256,472z M256,384
		c-13.7,0-31.8-32.6-37.9-88h75.8C287.8,351.4,269.7,384,256,384z"/>
	<path class="st0" d="M40,64h8c4.4,0,8-3.6,8-8s-3.6-8-8-8h-8c-4.4,0-8,3.6-8,8S35.6,64,40,64z"/>
	<path class="st0" d="M72,64h8c4.4,0,8-3.6,8-8s-3.6-8-8-8h-8c-4.4,0-8,3.6-8,8S67.6,64,72,64z"/>
	<path class="st0" d="M104,64h8c4.4,0,8-3.6,8-8s-3.6-8-8-8h-8c-4.4,0-8,3.6-8,8S99.6,64,104,64z"/>
</g>
</svg>
