<?xml version="1.0" encoding="utf-8"?>
<!-- Generator: Adobe Illustrator 25.2.0, SVG Export Plug-In . SVG Version: 6.00 Build 0)  -->
<svg version="1.1" id="Layer_1" xmlns="http://www.w3.org/2000/svg" xmlns:xlink="http://www.w3.org/1999/xlink" x="0px" y="0px"
	 viewBox="0 0 487 487" style="enable-background:new 0 0 487 487;" xml:space="preserve">
<style type="text/css">
	.st0{fill:#11ABA0;}
</style>
<path class="st0" d="M249.9,265.8c-0.9-0.2-1.8-0.2-2.7-0.1c-9.1-1.1-16-8.8-16.1-18c0-4.4-3.6-8-8-8s-8,3.6-8,8
	c0,15.4,10.3,28.8,25.1,32.9v8c0,4.4,3.6,8,8,8s8-3.6,8-8v-7.5c17.1-3.6,28.7-19.5,26.9-36.9c-1.8-17.4-16.4-30.6-33.9-30.6
	c-10,0-18.1-8.1-18.1-18.1s8.1-18.1,18.1-18.1s18.1,8.1,18.1,18.1c0,4.4,3.6,8,8,8s8-3.6,8-8c0-16.1-11.3-30.1-27.1-33.4v-7.3
	c0-4.4-3.6-8-8-8s-8,3.6-8,8v7.8c-16.5,4.5-27.1,20.5-24.8,37.4s16.7,29.6,33.8,29.6c9.9,0,17.9,7.9,18.1,17.8
	C267.5,257.2,259.7,265.4,249.9,265.8z"/>
<path class="st0" d="M133.4,222.2c0,64,51.9,115.8,115.8,115.8S365,286.1,365,222.2s-51.9-115.8-115.8-115.8
	C185.3,106.4,133.4,158.2,133.4,222.2z M249.2,122.3c55.2,0,99.9,44.7,99.9,99.9S304.3,322,249.2,322s-99.9-44.7-99.9-99.9
	C149.4,167,194.1,122.4,249.2,122.3z"/>
<path class="st0" d="M404.4,357.7l-62.6,29.6c-8.6-16.1-25.2-26.3-43.5-26.8l-57.8-1.6c-9.1-0.3-18.1-2.6-26.3-6.8l-5.9-3
	c-30.1-15.7-66-15.6-96,0.1l0.4-13.3c0.1-4.4-3.4-8.1-7.8-8.2L41.6,326c-4.4-0.1-8.1,3.4-8.2,7.8l-3.8,139c-0.1,4.4,3.4,8.1,7.8,8.2
	l63.3,1.7h0.2c4.3,0,7.9-3.4,8-7.8l0.2-6.7l16.5-8.8c6.5-3.5,14-4.3,21.1-2.3l98.3,27.6c0.2,0.1,0.3,0.1,0.5,0.1
	c7.1,1.5,14.3,2.2,21.6,2.2c15.4,0,30.6-3.3,44.5-9.7c0.3-0.2,0.7-0.3,1-0.5l142.5-92.2c3.5-2.3,4.7-7,2.6-10.6
	C447.1,355.2,423.7,348,404.4,357.7z M45.9,465.1l3.4-123l47.4,1.3l-3.4,123L45.9,465.1z M304.4,463c-17.4,7.8-36.7,10-55.4,6.2
	l-98-27.5c-11-3.1-22.8-1.8-32.9,3.6l-8.4,4.5L112,368c26.6-17.7,60.8-19.5,89.2-4.8l5.9,3c10.3,5.3,21.6,8.2,33.2,8.6l57.8,1.6
	c16.2,0.5,30,12,33.3,27.9l-86-2.4c-4.4-0.1-8.1,3.4-8.2,7.8c-0.1,4.4,3.4,8.1,7.8,8.2l95,2.6h0.2c4.3,0,7.9-3.4,8-7.8
	c0.1-3.5-0.2-6.9-0.8-10.4l64.2-30.3c0.1,0,0.1-0.1,0.2-0.1c9.1-4.6,20.1-3.1,27.6,3.9L304.4,463z"/>
<path class="st0" d="M257.2,83.9V8c0-4.4-3.6-8-8-8s-8,3.6-8,8v75.9c0,4.4,3.6,8,8,8S257.2,88.3,257.2,83.9z"/>
<path class="st0" d="M317.1,83.9v-36c0-4.4-3.6-8-8-8s-8,3.6-8,8v35.9c0,4.4,3.6,8,8,8C313.5,91.9,317.1,88.3,317.1,83.9z"/>
<path class="st0" d="M197.3,83.9v-36c0-4.4-3.6-8-8-8s-8,3.6-8,8v35.9c0,4.4,3.6,8,8,8S197.3,88.3,197.3,83.9z"/>
</svg>
