<?xml version="1.0" encoding="utf-8"?>
<!-- Generator: Adobe Illustrator 25.2.0, SVG Export Plug-In . SVG Version: 6.00 Build 0)  -->
<svg version="1.1" id="Layer_1" xmlns="http://www.w3.org/2000/svg" xmlns:xlink="http://www.w3.org/1999/xlink" x="0px" y="0px"
	 viewBox="0 0 512 512" style="enable-background:new 0 0 512 512;" xml:space="preserve">
<style type="text/css">
	.st0{fill:#704FFC;}
</style>
<path class="st0" d="M160,33h320v16H160V33z"/>
<path class="st0" d="M32,33h16v16H32V33z"/>
<path class="st0" d="M64,33h16v16H64V33z"/>
<path class="st0" d="M96,33h16v16H96V33z"/>
<path class="st0" d="M190.9,275.6l-18.1-18.1l11.3-11.3l6.8,6.8l17-17l11.3,11.3L190.9,275.6z"/>
<path class="st0" d="M190.9,404l-18.1-18.1l11.3-11.3l6.8,6.8l17-17l11.3,11.3L190.9,404z"/>
<path class="st0" d="M272,225h96v16h-96V225z"/>
<path class="st0" d="M272,265h64v16h-64V265z"/>
<path class="st0" d="M272,353h96v16h-96V353z"/>
<path class="st0" d="M272,393h64v16h-64V393z"/>
<path class="st0" d="M0,1v432h112v56.6l35.2,20.7l27.2-16l27.2,16l27.2-16l27.2,16l27.2-16l27.2,16l27.2-16l27.2,16l35.2-20.7V433
	h112V1H0z M384,480.4l-19.2,11.3l-27.2-16l-27.2,16l-27.2-16l-27.2,16l-27.2-16l-27.2,16l-27.2-16l-27.2,16L128,480.4V129h192v64h64
	V480.4z M336,177v-36.7l36.7,36.7H336z M496,417h-96V181.7L331.3,113H112v304H16V81h480V417z M496,65H16V17h480V65z"/>
<path class="st0" d="M196,201c-28.7,0-52,23.3-52,52s23.3,52,52,52s52-23.3,52-52S224.7,201,196,201z M196,289
	c-19.9,0-36-16.1-36-36s16.1-36,36-36s36,16.1,36,36S215.9,289,196,289z"/>
<path class="st0" d="M196,329c-28.7,0-52,23.3-52,52s23.3,52,52,52s52-23.3,52-52S224.7,329,196,329z M196,417
	c-19.9,0-36-16.1-36-36s16.1-36,36-36s36,16.1,36,36S215.9,417,196,417z"/>
</svg>
