<?xml version="1.0" encoding="utf-8"?>
<!-- Generator: Adobe Illustrator 25.2.0, SVG Export Plug-In . SVG Version: 6.00 Build 0)  -->
<svg version="1.1" id="Capa_1" xmlns="http://www.w3.org/2000/svg" xmlns:xlink="http://www.w3.org/1999/xlink" x="0px" y="0px"
	 viewBox="0 0 512 512" style="enable-background:new 0 0 512 512;" xml:space="preserve">
<style type="text/css">
	.st0{fill:#FB923D;}
</style>
<path class="st0" d="M380.8,120.2c-3.5,2.2-4.6,6.8-2.4,10.3c14.1,22.7,21.6,49,21.6,75.9c0,37-14,72.2-39.4,99
	c-19.9,21-30.8,49-30.8,78.8l0.1,18.8c0,5.3-2.1,10.3-5.8,14.1s-8.8,5.8-14.1,5.8h-5.3V291.5c0-5.9-3.3-11-8.1-13.6v-24.4
	c1.1-7.2,3.1-14.1,6.1-20.7c3.3-7.2,7.6-13.8,12.9-19.7c3.2-3.6,3.8-8.8,1.6-13c-6.8-12.8-14.4-25.3-22.3-37.4
	c-8.7-13.2-18.2-26.1-28.2-38.3c-5.4-6.6-16-6.8-21.6-0.1c-10.3,12.5-20.1,25.7-28.9,39.2c-7.7,11.8-15,24.1-21.5,36.5
	c-2.3,4.4-1.5,10,2.1,13.5c6.3,6.1,11.2,13.3,14.4,21.4c2.4,6,3.8,12.4,4.2,18.9c0,0.1,0,0.1,0,0.2v24c-4.8,2.6-8.1,7.8-8.1,13.7
	V398c0,4.1,3.4,7.5,7.5,7.5s7.5-3.4,7.5-7.5v-72.4h67.5v97.3h-87.5c-10.9,0-19.9-8.9-19.9-19.9l-0.1-18.1c0-30.2-11.1-58.6-31.3-80
	c-24.9-26.5-38.7-61-39-97.3c-0.7-79,63-144.2,142-145.3c0.7,0,1.3,0,2,0c39.5,0,77.5,16.3,104.7,45c2.8,3,7.6,3.1,10.6,0.3
	c3-2.8,3.1-7.6,0.3-10.6c-30-31.7-72-49.7-115.5-49.7c-0.7,0-1.5,0-2.2,0C166.6,48.6,96.2,120.6,97,207.8
	c0.3,40.1,15.7,78.2,43.1,107.4c17.5,18.6,27.1,43.4,27.2,69.7l0.1,18.1c0,16.8,12,30.9,27.8,34.1l-0.1,26.8c0,0.3-0.1,0.6-0.1,0.9
	s0,0.6,0.1,0.9l-0.1,12.5l0,0c0,9,3.4,17.4,9.7,23.8s14.7,9.8,23.7,9.8l0,0h54.9c18.4,0,33.4-14.9,33.5-33.3L317,437
	c6.7-1.4,12.8-4.6,17.7-9.5c6.6-6.6,10.2-15.4,10.2-24.7l-0.1-18.8c0-25.9,9.4-50.2,26.7-68.4C399.6,286,415,247.1,415,206.3
	c0-29.7-8.2-58.7-23.9-83.8C389,119.1,384.4,118,380.8,120.2L380.8,120.2z M230.4,260.6h51.2v15.3h-51.2L230.4,260.6L230.4,260.6z
	 M209.2,204.5c6-11.2,12.6-22.3,19.6-33c6.2-9.4,12.8-18.7,19.7-27.6v64.5c0,4.1,3.4,7.5,7.5,7.5s7.5-3.4,7.5-7.5v-64.2
	c6.6,8.6,13,17.5,18.9,26.5c7.3,11,14.1,22.4,20.4,34c-5.6,6.6-10.2,13.8-13.8,21.6c-2.8,6.1-4.9,12.5-6.3,19.1h-53.1
	c-0.9-5.7-2.4-11.2-4.5-16.5C221.5,220,216.1,211.7,209.2,204.5L209.2,204.5z M222.3,310.7v-19.2c0-0.3,0.2-0.5,0.6-0.5h66.3
	c0.3,0,0.5,0.2,0.5,0.5v19.2H222.3z M301.8,478.6c0,10.1-8.3,18.4-18.5,18.4h-54.9l0,0c-4.9,0-9.6-1.9-13.1-5.4s-5.4-8.2-5.4-13.1
	v-6h70.3c4.1,0,7.5-3.4,7.5-7.5s-3.4-7.5-7.5-7.5h-70.3L210,438h91.8L301.8,478.6z"/>
<path class="st0" d="M255.9,28.9c4.1,0,7.5-3.4,7.5-7.5V7.5c0-4.1-3.4-7.5-7.5-7.5s-7.5,3.4-7.5,7.5v13.9
	C248.4,25.5,251.8,28.9,255.9,28.9z"/>
<path class="st0" d="M453,203.3h-13.4c-4.1,0-7.5,3.4-7.5,7.5s3.4,7.5,7.5,7.5H453c4.1,0,7.5-3.4,7.5-7.5S457.1,203.3,453,203.3z"/>
<path class="st0" d="M72.4,203.3H59c-4.1,0-7.5,3.4-7.5,7.5s3.4,7.5,7.5,7.5h13.4c4.1,0,7.5-3.4,7.5-7.5S76.6,203.3,72.4,203.3z"/>
<path class="st0" d="M385.8,84.4c2,0,3.9-0.8,5.4-2.3l9.5-9.8c2.9-3,2.8-7.7-0.2-10.6s-7.7-2.8-10.6,0.2l-9.5,9.8
	c-2.9,3-2.8,7.7,0.2,10.6C382,83.7,383.9,84.4,385.8,84.4z"/>
<path class="st0" d="M120.8,339.6l-9.5,9.8c-2.9,3-2.8,7.7,0.2,10.6c1.5,1.4,3.3,2.1,5.2,2.1c2,0,3.9-0.8,5.4-2.3l9.5-9.8
	c2.9-3,2.8-7.7-0.2-10.6S123.7,336.6,120.8,339.6z"/>
<path class="st0" d="M391.2,339.6c-2.9-3-7.6-3.1-10.6-0.2s-3,7.6-0.2,10.6l9.5,9.8c1.5,1.5,3.4,2.3,5.4,2.3c1.9,0,3.8-0.7,5.2-2.1
	c3-2.9,3-7.6,0.2-10.6L391.2,339.6z"/>
<path class="st0" d="M120.8,82.1c1.5,1.5,3.4,2.3,5.4,2.3c1.9,0,3.8-0.7,5.2-2.1c3-2.9,3.1-7.6,0.2-10.6l-9.5-9.8
	c-2.9-3-7.6-3.1-10.6-0.2c-3,2.9-3.1,7.6-0.2,10.6L120.8,82.1z"/>
</svg>
